<?xml version="1.0" encoding="UTF-8" standalone="no"?><!DOCTYPE svg PUBLIC "-//W3C//DTD SVG 1.1//EN" "http://www.w3.org/Graphics/SVG/1.1/DTD/svg11.dtd"><svg width="100%" height="100%" viewBox="0 0 1024 1024" version="1.1" xmlns="http://www.w3.org/2000/svg" xmlns:xlink="http://www.w3.org/1999/xlink" xml:space="preserve" xmlns:serif="http://www.serif.com/" style="fill-rule:evenodd;clip-rule:evenodd;stroke-linecap:round;stroke-linejoin:round;stroke-miterlimit:1.5;"><g id="icon"><path d="M1014.88,264.594l-0,500c-0,137.978 -112.022,250 -250,250l-500,-0c-137.979,-0 -250,-112.022 -250,-250l-0,-500c-0,-137.979 112.021,-250 250,-250l500,-0c137.978,-0 250,112.021 250,250Z" style="fill:#293241;stroke:#3d5a80;stroke-width:20.35px;"/><g id="logo"><path d="M640.975,485.685c-23.491,6.015 -224.337,31.559 -239.781,2.379c-3.114,-5.885 -7.239,-6.88 -14.898,-6.595c-28.834,1.077 -51.082,9.385 -63.219,34.032c-5.421,11.01 -17.444,15.095 -31.528,14.537c-13.417,-0.532 -18.823,-8.355 -22.931,-17.544c-8.045,-18 -23.351,-27.754 -45.046,-30.896c-7.296,-1.057 -36.78,5.112 -46.381,6.037c-2.987,-2.242 -2.532,-4.752 -2.448,-7.224c1.723,-50.536 54.743,-97.162 114.475,-97.878c19.883,-0.238 26.983,-5.612 32.659,-21.721c27.892,-79.16 117.017,-127.809 205.116,-121.668c95.026,6.623 159.104,50.63 186.497,131.308c2.977,8.766 8.067,12.277 18.391,11.551c18.237,-1.283 35.457,2.739 52.012,8.929c44.738,16.727 75.668,58.42 70.847,95.509c-1.657,-0.097 -3.406,0.052 -4.986,-0.327c-48.505,-11.647 -64.527,-5.852 -88.861,32.74c-4.671,7.407 -11.317,10.681 -20.831,11.025c-15.423,0.558 -25.206,-6.47 -31.12,-17.673c-7.954,-15.067 -44.475,-32.536 -67.967,-26.521Z" style="fill:#ee6c4d;"/><path d="M169.36,630.523c-25.064,-23.725 -39.961,-57.232 -38.883,-93.828c0.051,-1.728 -0.383,-3.655 0.228,-5.156c13.652,-33.567 10.258,-70.022 17.642,-104.479c3.983,-18.581 11.188,-35.541 21.013,-50.42c23.91,-36.212 63.337,-60.098 109.594,-65.026c10.248,-1.092 13.637,-6.657 16.633,-14.524c23.761,-62.377 63.67,-106.184 118.61,-130.677c18.738,-8.354 39.225,-14.461 61.415,-18.291c49.409,-8.529 98.186,-1.511 140.422,18.291c51.711,24.245 93.617,67.654 114.874,125.157c5.033,13.615 11.014,18.953 26.216,20.824c41.619,5.123 77.953,29.651 100.947,63.849c14.496,21.559 23.691,46.962 25.565,73.767c1.503,21.492 3.478,42.467 10.654,63.672c13.964,41.266 -1.675,86.632 -36.219,117.479c-3.678,3.283 -7.57,6.403 -11.663,9.335c-3.74,2.68 -7.755,4.976 -12.782,8.053c-24.109,12.495 -48.584,17.902 -74.386,17.872c-62.255,-0.073 -206.203,0.4 -206.203,0.4c0,0 -0.097,-83.378 -0.842,-115.064c-0.276,-11.71 4,-17.305 14.636,-21.76c42.281,-17.71 49.49,-65.335 72.982,-72.279c23.491,-6.943 60.012,13.223 67.966,30.616c5.914,12.933 15.698,21.046 31.12,20.402c9.514,-0.397 16.16,-4.177 20.831,-12.728c24.335,-44.55 40.357,-51.24 88.861,-37.795c1.58,0.438 3.329,0.266 4.986,0.378c4.821,-42.816 -26.109,-90.946 -70.846,-110.256c-16.555,-7.145 -33.775,-11.788 -52.012,-10.308c-10.324,0.839 -15.415,-3.214 -18.391,-13.333c-27.394,-93.135 -91.471,-143.937 -186.498,-151.582c-88.098,-7.089 -177.224,49.071 -205.116,140.453c-5.675,18.596 -12.776,24.8 -32.659,25.075c-59.731,0.826 -112.752,54.651 -114.475,112.99c-0.084,2.853 -0.538,5.751 2.449,8.339c9.601,-1.068 39.085,-8.189 46.38,-6.969c21.695,3.628 37.001,14.887 45.047,35.666c4.107,10.609 9.514,19.639 22.93,20.253c14.085,0.645 26.107,-4.071 31.529,-16.782c12.136,-28.452 34.385,-38.043 63.219,-39.285c7.658,-0.33 11.783,0.818 14.898,7.612c15.444,33.686 37.502,60.675 74.277,72.642c6.6,2.148 7.808,7.719 7.797,13.899c-0.063,35.162 -1.509,119.816 -1.509,119.816c-0,0 -154.033,0.94 -224.308,-0.922c-34.294,-0.909 -64.634,-14.272 -86.929,-35.376Z" style="fill:#3d5a80;"/><path d="M488.292,715.888l-0,127.523l-73.452,0l0.084,-36.186l48.345,0l-0.526,-51.009l-48.004,-0l0.144,-40.328l73.409,-0Z" style="fill:#ee6c4d;fill-rule:nonzero;"/><path d="M477.048,549.819c-57.512,-11.84 -87.667,-61.55 -87.667,-119.832c-0,-67.128 57.239,-121.628 127.741,-121.628c70.502,-0 127.741,54.5 127.741,121.628c0,58.282 -27.91,107.992 -85.423,119.832l3.05,116.967l-88.613,0l3.171,-116.967Z" style="fill:#3d5a80;"/><path d="M495.416,536.781c-46.096,-9.966 -80.677,-51.013 -80.677,-100.073c-0,-56.507 45.876,-102.383 102.383,-102.383c56.507,-0 102.383,45.876 102.383,102.383c0,49.06 -34.581,90.107 -80.677,100.073l-0,324.16c-0,0 -14.471,23.693 -21.706,23.693c-7.235,-0 -21.706,-23.693 -21.706,-23.693l0,-324.16Z" style="fill:#ee6c4d;"/><clipPath id="_clip1"><path d="M495.416,536.781c-46.096,-9.966 -80.677,-51.013 -80.677,-100.073c-0,-56.507 45.876,-102.383 102.383,-102.383c56.507,-0 102.383,45.876 102.383,102.383c0,49.06 -34.581,90.107 -80.677,100.073l-0,324.16c-0,0 -14.471,23.693 -21.706,23.693c-7.235,-0 -21.706,-23.693 -21.706,-23.693l0,-324.16Z"/></clipPath><g clip-path="url(#_clip1)"><path d="M465.251,481.215c-1.587,-2.222 -2.301,-5.078 -2.142,-8.569c0.158,-3.492 2.221,-6.507 6.189,-9.046c2.539,-1.587 5.237,-2.261 8.093,-2.023c2.857,0.238 5.634,1.706 8.332,4.403c4.602,4.603 9.442,8.173 14.52,10.712c5.079,2.539 11.426,3.809 19.044,3.809c2.38,-0.159 4.999,-0.516 7.855,-1.071c2.857,-0.556 5.356,-1.825 7.499,-3.809c2.142,-1.984 3.213,-5.038 3.213,-9.165c0,-3.491 -1.19,-6.268 -3.57,-8.331c-2.381,-2.063 -5.515,-3.809 -9.403,-5.237c-3.888,-1.428 -8.213,-2.777 -12.974,-4.047c-4.919,-1.428 -9.958,-3.015 -15.115,-4.761c-5.158,-1.745 -9.879,-4.007 -14.164,-6.784c-4.285,-2.777 -7.776,-6.467 -10.474,-11.069c-2.698,-4.602 -4.046,-10.394 -4.046,-17.377c-0,-7.935 2.221,-14.679 6.665,-20.234c4.443,-5.554 10.196,-9.839 17.258,-12.854c7.062,-3.015 14.481,-4.523 22.257,-4.523c4.919,0 10.077,0.595 15.473,1.785c5.395,1.191 10.553,3.095 15.473,5.714c4.919,2.618 9.045,6.07 12.378,10.354c1.745,2.381 2.777,5.237 3.094,8.57c0.318,3.333 -1.19,6.348 -4.522,9.046c-2.381,1.904 -5.158,2.737 -8.332,2.499c-3.174,-0.238 -5.792,-1.309 -7.855,-3.214c-2.698,-3.491 -6.309,-6.268 -10.831,-8.331c-4.523,-2.063 -9.72,-3.095 -15.592,-3.095c-2.381,0 -4.959,0.278 -7.737,0.834c-2.777,0.555 -5.197,1.745 -7.26,3.57c-2.063,1.825 -3.094,4.721 -3.094,8.689c-0,3.65 1.19,6.546 3.57,8.688c2.381,2.143 5.594,3.888 9.641,5.237c4.047,1.349 8.371,2.658 12.973,3.928c4.761,1.27 9.601,2.777 14.521,4.523c4.919,1.745 9.442,4.047 13.568,6.903c4.126,2.857 7.459,6.546 9.998,11.069c2.539,4.523 3.809,10.276 3.809,17.258c-0,8.094 -2.381,14.997 -7.141,20.71c-4.761,5.713 -10.712,10.037 -17.854,12.973c-7.141,2.936 -14.441,4.404 -21.9,4.404c-9.363,0 -18.726,-1.626 -28.089,-4.88c-9.363,-3.253 -17.139,-9.006 -23.328,-17.258Z" style="fill:#fff;fill-rule:nonzero;"/></g></g></g></svg>